<svg width="264" height="37" viewBox="0 0 264 37" fill="none" xmlns="http://www.w3.org/2000/svg">
<path d="M52.3448 18.9826C54.4208 13.8788 54.2409 9.91079 51.8181 7.0739C49.391 4.25048 44.8177 2.83203 38.0893 2.83203H15.328L13.2739 7.94472H28.9427C36.9438 7.94472 39.2568 12.0519 36.4961 18.8524C34.9073 22.7845 33.4984 26.398 30.1716 28.0049C27.1256 29.4817 23.9787 29.9127 18.3827 29.9127L11.1277 29.8947L16.5481 16.6619H9.71883L2.0293 35.5056H22.6576C28.4423 35.5056 33.0113 34.9625 36.3688 33.8538C40.06 32.6373 43.3693 30.6398 46.288 27.8389C49.0092 25.186 51.0281 22.2279 52.3448 18.9826Z" fill="#6A6A6A"/>
<path d="M181.958 22.4145L195.822 8.51729L198.702 22.4145H181.958ZM64.0954 22.4683L77.5959 9.17265L80.0318 22.4683H64.0954ZM194.633 2.78516L194.642 2.81658H186.189L153.71 34.1211L166.407 2.82556H152.485L135.667 16.3951L127.007 23.7207H126.612L130.69 13.0509L125.721 2.82556H111.729L99.0187 34.184L91.6978 2.82556H76.3714L42.5234 35.4992H50.9766L59.6318 26.9571H80.9579L82.6565 35.4992H105.317L113.516 15.3043C113.924 14.2898 114.319 13.1228 114.701 11.812C114.744 12.8759 115.021 13.9981 115.526 15.1696L122.724 32.0204H123.948L144.563 15.2325C145.331 14.604 146.499 13.4684 148.066 11.812C147.271 13.3472 146.714 14.5008 146.38 15.3043L138.19 35.4992H153.157V35.4857H168.931L177.481 26.9032H199.632L201.414 35.4857H209.2L201.612 2.78516H194.633Z" fill="#6A6A6A"/>
<path d="M261.883 2.82812H239.117C232.393 2.82812 226.674 4.24657 221.952 7.06999C217.229 9.90689 213.841 13.8749 211.765 18.9787C210.448 22.224 210.071 25.1821 210.637 27.835C211.299 30.6359 212.976 32.6379 215.671 33.8499C218.142 34.9586 222.276 35.5017 228.057 35.5017H248.637L250.682 30.3172H239.095C233.499 30.3172 229.782 29.5676 227.934 28.0908C225.902 26.4973 226.13 22.7851 227.714 18.8485C230.475 12.048 236.255 7.81513 244.252 7.81513H253.228L251.169 12.9188H257.998L261.975 3.11541H261.773L261.883 2.82812Z" fill="#6A6A6A"/>
</svg>
