<svg width="284" height="37" viewBox="0 0 284 37" fill="none" xmlns="http://www.w3.org/2000/svg">
<path d="M0.496487 35.8516V2.33555H15.7223C19.3612 2.33555 22.5692 3.03779 25.3462 4.44228C28.1233 5.81484 30.2938 7.746 31.8579 10.2358C33.422 12.7255 34.204 15.6781 34.204 19.0936C34.204 22.4771 33.422 25.4297 31.8579 27.9514C30.2938 30.4411 28.1233 32.3882 25.3462 33.7927C22.5692 35.1653 19.3612 35.8516 15.7223 35.8516H0.496487ZM8.25305 29.4835H15.3393C17.5737 29.4835 19.5049 29.0686 21.1328 28.2386C22.7926 27.3768 24.0694 26.1638 24.9632 24.5998C25.8889 23.0357 26.3517 21.2003 26.3517 19.0936C26.3517 16.9549 25.8889 15.1195 24.9632 13.5874C24.0694 12.0233 22.7926 10.8263 21.1328 9.99636C19.5049 9.13452 17.5737 8.7036 15.3393 8.7036H8.25305V29.4835ZM51.7842 36.2346C49.0391 36.2346 46.5972 35.66 44.4586 34.5109C42.3518 33.3618 40.676 31.7977 39.4312 29.8187C38.2182 27.8077 37.6117 25.5254 37.6117 22.9718C37.6117 20.3863 38.2182 18.104 39.4312 16.125C40.676 14.114 42.3518 12.55 44.4586 11.4328C46.5972 10.2836 49.0391 9.70908 51.7842 9.70908C54.4974 9.70908 56.9233 10.2836 59.062 11.4328C61.2006 12.55 62.8764 14.0981 64.0894 16.0771C65.3023 18.0562 65.9088 20.3544 65.9088 22.9718C65.9088 25.5254 65.3023 27.8077 64.0894 29.8187C62.8764 31.7977 61.2006 33.3618 59.062 34.5109C56.9233 35.66 54.4974 36.2346 51.7842 36.2346ZM51.7842 30.106C53.0291 30.106 54.1463 29.8187 55.1358 29.2441C56.1253 28.6696 56.9074 27.8556 57.4819 26.8022C58.0565 25.717 58.3438 24.4402 58.3438 22.9718C58.3438 21.4716 58.0565 20.1948 57.4819 19.1414C56.9074 18.0881 56.1253 17.2741 55.1358 16.6996C54.1463 16.125 53.0291 15.8377 51.7842 15.8377C50.5393 15.8377 49.4221 16.125 48.4326 16.6996C47.4431 17.2741 46.6451 18.0881 46.0386 19.1414C45.464 20.1948 45.1768 21.4716 45.1768 22.9718C45.1768 24.4402 45.464 25.717 46.0386 26.8022C46.6451 27.8556 47.4431 28.6696 48.4326 29.2441C49.4221 29.8187 50.5393 30.106 51.7842 30.106ZM83.1587 36.2346C80.4136 36.2346 77.9717 35.66 75.8331 34.5109C73.7263 33.3618 72.0505 31.7977 70.8057 29.8187C69.5927 27.8077 68.9862 25.5254 68.9862 22.9718C68.9862 20.3863 69.5927 18.104 70.8057 16.125C72.0505 14.114 73.7263 12.55 75.8331 11.4328C77.9717 10.2836 80.4136 9.70908 83.1587 9.70908C85.8719 9.70908 88.2978 10.2836 90.4365 11.4328C92.5751 12.55 94.2509 14.0981 95.4639 16.0771C96.6768 18.0562 97.2833 20.3544 97.2833 22.9718C97.2833 25.5254 96.6768 27.8077 95.4639 29.8187C94.2509 31.7977 92.5751 33.3618 90.4365 34.5109C88.2978 35.66 85.8719 36.2346 83.1587 36.2346ZM83.1587 30.106C84.4036 30.106 85.5208 29.8187 86.5103 29.2441C87.4998 28.6696 88.2819 27.8556 88.8564 26.8022C89.431 25.717 89.7183 24.4402 89.7183 22.9718C89.7183 21.4716 89.431 20.1948 88.8564 19.1414C88.2819 18.0881 87.4998 17.2741 86.5103 16.6996C85.5208 16.125 84.4036 15.8377 83.1587 15.8377C81.9138 15.8377 80.7966 16.125 79.8071 16.6996C78.8176 17.2741 78.0196 18.0881 77.4131 19.1414C76.8385 20.1948 76.5513 21.4716 76.5513 22.9718C76.5513 24.4402 76.8385 25.717 77.4131 26.8022C78.0196 27.8556 78.8176 28.6696 79.8071 29.2441C80.7966 29.8187 81.9138 30.106 83.1587 30.106ZM102.276 35.8516V10.0921H109.41V17.3699L108.405 15.2632C109.171 13.4437 110.4 12.0712 112.091 11.1455C113.783 10.1879 115.842 9.70908 118.268 9.70908V16.6038C117.949 16.5719 117.661 16.5559 117.406 16.5559C117.151 16.524 116.879 16.508 116.592 16.508C114.549 16.508 112.889 17.0986 111.613 18.2796C110.368 19.4287 109.745 21.2322 109.745 23.69V35.8516H102.276ZM123.142 35.8516V2.33555H138.368C142.007 2.33555 145.215 3.03779 147.992 4.44228C150.769 5.81484 152.94 7.746 154.504 10.2358C156.068 12.7255 156.85 15.6781 156.85 19.0936C156.85 22.4771 156.068 25.4297 154.504 27.9514C152.94 30.4411 150.769 32.3882 147.992 33.7927C145.215 35.1653 142.007 35.8516 138.368 35.8516H123.142ZM130.899 29.4835H137.985C140.219 29.4835 142.151 29.0686 143.779 28.2386C145.438 27.3768 146.715 26.1638 147.609 24.5998C148.535 23.0357 148.997 21.2003 148.997 19.0936C148.997 16.9549 148.535 15.1195 147.609 13.5874C146.715 12.0233 145.438 10.8263 143.779 9.99636C142.151 9.13452 140.219 8.7036 137.985 8.7036H130.899V29.4835ZM177.973 35.8516V30.8242L177.494 29.7229V20.7215C177.494 19.1255 177 17.8806 176.01 16.9868C175.052 16.0931 173.568 15.6462 171.557 15.6462C170.185 15.6462 168.828 15.8696 167.487 16.3165C166.179 16.7315 165.061 17.306 164.136 18.0402L161.454 12.8213C162.859 11.8318 164.551 11.0657 166.53 10.523C168.509 9.9804 170.52 9.70908 172.563 9.70908C176.489 9.70908 179.537 10.6348 181.708 12.4861C183.878 14.3375 184.964 17.2262 184.964 21.1524V35.8516H177.973ZM170.121 36.2346C168.11 36.2346 166.386 35.8994 164.95 35.2291C163.513 34.5269 162.412 33.5852 161.646 32.4042C160.88 31.2232 160.497 29.8985 160.497 28.4302C160.497 26.898 160.864 25.5574 161.598 24.4082C162.364 23.2591 163.561 22.3654 165.189 21.727C166.817 21.0566 168.94 20.7215 171.557 20.7215H178.404V25.0786H172.371C170.616 25.0786 169.403 25.3658 168.732 25.9404C168.094 26.515 167.775 27.2332 167.775 28.095C167.775 29.0526 168.142 29.8187 168.876 30.3932C169.642 30.9359 170.679 31.2072 171.988 31.2072C173.233 31.2072 174.35 30.9199 175.34 30.3454C176.329 29.7389 177.047 28.8611 177.494 27.712L178.643 31.1593C178.101 32.8192 177.111 34.08 175.675 34.9418C174.238 35.8037 172.387 36.2346 170.121 36.2346ZM189.952 35.8516V31.3508L205.178 13.348L206.471 15.8377H190.287V10.0921H212.504V14.5928L197.278 32.5957L195.937 30.106H212.934V35.8516H189.952ZM215.949 35.8516V31.3508L231.175 13.348L232.468 15.8377H216.285V10.0921H238.501V14.5928L223.275 32.5957L221.934 30.106H238.932V35.8516H215.949ZM243.718 35.8516V0.324594H251.188V35.8516H243.718ZM270.904 36.2346C267.967 36.2346 265.382 35.66 263.147 34.5109C260.945 33.3618 259.237 31.7977 258.024 29.8187C256.811 27.8077 256.205 25.5254 256.205 22.9718C256.205 20.3863 256.795 18.104 257.976 16.125C259.189 14.114 260.833 12.55 262.908 11.4328C264.983 10.2836 267.329 9.70908 269.946 9.70908C272.468 9.70908 274.734 10.2517 276.745 11.337C278.788 12.3904 280.4 13.9225 281.581 15.9335C282.762 17.9125 283.352 20.2906 283.352 23.0676C283.352 23.3549 283.337 23.69 283.305 24.0731C283.273 24.4242 283.241 24.7594 283.209 25.0786H262.285V20.7215H279.283L276.41 22.0142C276.41 20.6736 276.139 19.5085 275.596 18.519C275.053 17.5295 274.303 16.7634 273.346 16.2208C272.388 15.6462 271.271 15.3589 269.994 15.3589C268.717 15.3589 267.584 15.6462 266.594 16.2208C265.637 16.7634 264.887 17.5454 264.344 18.5669C263.801 19.5564 263.53 20.7374 263.53 22.11V23.2591C263.53 24.6636 263.833 25.9085 264.44 26.9938C265.078 28.0471 265.956 28.8611 267.073 29.4356C268.222 29.9783 269.563 30.2496 271.095 30.2496C272.468 30.2496 273.665 30.0421 274.686 29.6272C275.74 29.2122 276.697 28.5898 277.559 27.7598L281.533 32.069C280.352 33.4097 278.868 34.4471 277.08 35.1812C275.293 35.8835 273.234 36.2346 270.904 36.2346Z" fill="#6A6A6A"/>
</svg>
