<svg width="60" height="101" viewBox="0 0 60 101" fill="none" xmlns="http://www.w3.org/2000/svg">
<path d="M10.4199 94.8012C10.4199 94.6737 10.5233 94.5703 10.6508 94.5703H49.1666C49.2941 94.5703 49.3974 94.6737 49.3974 94.8012C49.3974 96.6499 47.8988 98.1486 46.05 98.1486L13.7673 98.1486C11.9186 98.1486 10.4199 96.6499 10.4199 94.8012Z" fill="#6A6A6A"/>
<path d="M5.07058 86.7491C5.05208 85.2689 6.24556 84.0584 7.72588 84.0559L51.8741 83.9812C53.3699 83.9786 54.5737 85.2097 54.5378 86.7051L54.5187 87.4984C54.5187 89.4208 52.9612 90.9797 51.0388 90.9813L8.55894 91.0173C6.6046 91.0189 5.03267 89.4103 5.07943 87.4565L5.07058 86.7491Z" fill="#6A6A6A"/>
<path d="M10.1027 8.17769C8.28428 8.17769 8.25149 5.13281 10.1027 5.13281H49.7257C51.5769 5.13281 51.5441 8.17769 49.7257 8.17769H10.1027Z" fill="#6A6A6A"/>
<path d="M46.7347 11.4129L12.9536 11.3886C11.4837 11.3876 10.3854 12.642 9.77185 13.9777C8.86505 15.9518 6.98739 16.8007 5.90249 18.2329C5.01613 19.403 6.2692 20.709 7.73713 20.7106L51.9489 20.7597C53.4191 20.7613 54.6433 19.474 53.7902 18.2765C52.7384 16.8 50.9402 15.7627 50.0024 13.9756C49.32 12.6755 48.203 11.414 46.7347 11.4129Z" fill="#6A6A6A"/>
<path d="M31.6978 54.874C31.6975 54.0548 32.0746 53.2812 32.72 52.7769L35.4628 50.6338C37.2071 49.271 39.7557 50.5105 39.7605 52.7241L39.8143 77.3439C39.8175 78.8081 38.6367 79.9996 37.1725 80.0096L34.3847 80.0287C32.909 80.0388 31.7071 78.8456 31.7065 77.3698L31.6978 54.874Z" fill="#6A6A6A"/>
<path d="M28.043 54.8514C28.0442 54.0578 27.691 53.3051 27.0799 52.7989L24.6625 50.7965C22.9277 49.3595 20.3037 50.5946 20.3056 52.8472L20.3262 77.3671C20.3275 78.8357 21.5187 80.0254 22.9872 80.0248L25.3497 80.0239C26.8168 80.0234 28.0065 78.8351 28.0087 77.368L28.043 54.8514Z" fill="#6A6A6A"/>
<path d="M7.75594 79.9782C6.29875 79.9643 5.12397 78.7806 5.1212 77.3234L5.02652 27.6269C5.02373 26.1646 6.20177 24.9743 7.66398 24.9619L11.137 24.9325C11.8015 24.9268 12.444 25.1701 12.9381 25.6144L28.0774 39.2271C29.0793 40.128 30.5966 40.1374 31.6096 39.2492L47.3268 25.4679C47.8142 25.0405 48.4409 24.8058 49.0891 24.808L51.9344 24.8172C53.4001 24.822 54.5857 26.0114 54.5857 27.4771L54.5869 77.371C54.587 78.8401 53.396 80.0311 51.9269 80.0311H48.5728C47.1051 80.0311 45.9147 78.8423 45.9128 77.3746L45.8663 42.4321C45.8633 40.1507 43.178 38.9314 41.4583 40.4306L31.48 49.1298C30.4703 50.01 28.9637 50.0022 27.9632 49.1116L18.2767 40.4879C16.5634 38.9627 13.8522 40.1759 13.8479 42.4697L13.7828 77.355C13.78 78.832 12.5745 80.0239 11.0975 80.0099L7.75594 79.9782Z" fill="#6A6A6A"/>
</svg>
