<svg width="229" height="50" viewBox="0 0 229 50" fill="none" xmlns="http://www.w3.org/2000/svg">
<path d="M50.6131 4.72483C51.4455 5.88997 51.3621 7.38671 51.7761 8.71462L51.1104 9.29909C41.2051 9.54514 32.3778 10.0471 22.4702 10.7936C22.9698 12.7059 25.6352 14.1202 24.8832 16.533C20.0556 26.4264 16.0589 36.7363 11.8128 46.9667C11.1487 47.5474 10.2307 47.2112 9.64843 46.7123C8.39908 45.2989 5.31892 44.3866 6.31734 42.0571C10.7318 31.6631 15.1447 21.3533 20.4741 11.3788C14.8952 11.5446 9.64843 12.2926 3.98618 12.7067L3.73828 12.5439L5.73663 8.05218C20.3907 5.88997 35.207 4.55903 50.6131 4.72483Z" fill="#6A6A6A"/>
<path d="M39.2904 16.0377C39.6248 17.118 39.5414 18.6163 38.9592 19.6133C38.1268 20.7785 36.8774 21.6923 35.4613 21.7756C33.8806 22.0231 32.3811 21.2751 31.7163 19.7814C31.2152 18.5338 30.8839 16.7039 31.6329 15.373C32.1302 14.2926 33.3803 13.7081 34.4629 13.3773C36.4597 13.294 38.458 14.042 39.2904 16.0377Z" fill="#6A6A6A"/>
<path d="M30.3782 23.2723C31.4615 24.7698 34.1239 26.0159 33.6266 28.0949C31.2932 32.5851 28.9628 36.9898 27.3814 41.7276C30.0438 40.4012 32.5433 37.8241 34.876 35.5756C38.5368 31.8356 41.9513 28.0131 45.199 24.1066C46.8631 24.52 48.3626 26.0159 49.3625 27.1826C47.5317 30.9226 45.4507 34.6633 43.7837 38.4888L56.8556 25.6836C58.3536 26.5996 60.6863 28.0131 60.7689 29.8415C58.6045 32.8319 56.9405 36.0775 55.607 39.3223L68.5925 27.7618C70.2595 27.5952 71.5892 29.6741 72.6726 31.0073C70.3429 35.0797 66.8451 38.7356 67.0967 43.7278C67.5107 44.8066 68.6759 44.8066 69.4279 44.7241C68.8442 45.8839 67.6775 46.8878 66.4281 47.1361C64.8475 47.5533 63.5147 46.8886 62.2646 46.139C59.0215 41.8964 63.3479 37.7393 65.0984 33.9986C60.4346 36.9898 56.3545 41.8116 52.6102 45.8067C50.9432 45.0579 49.6112 43.6437 48.1958 42.6466L48.2792 41.3172C50.0266 38.407 51.6103 35.4128 53.4411 32.5851L52.94 32.6691C48.6931 36.5726 44.284 40.6487 40.7012 45.2237C38.8704 45.5553 37.5384 44.0601 36.1253 43.2258L35.8736 42.7307C37.2867 39.3223 39.1221 36.0775 40.4518 32.7501C35.791 37.0746 31.3766 42.0629 26.1313 44.9724C24.1329 45.2237 23.1345 43.06 21.6335 41.9819L21.3037 41.3172C23.5515 35.0804 25.7166 28.6778 29.6284 23.1875L30.3782 23.2723Z" fill="#6A6A6A"/>
<path d="M170.253 32.2483C167.587 35.0759 165.007 38.2367 166.257 42.2258C166.671 43.3917 167.836 44.2199 169.088 44.1374C173.082 43.5575 174.916 39.065 175.744 35.8232C174.66 35.989 173.747 35.6566 172.833 35.3243C171.581 34.7443 170.752 33.3301 170.253 32.2483ZM120.794 30.3329C118.301 32.2483 116.383 34.7444 115.802 37.5728C115.55 39.0657 115.802 40.4792 116.8 41.5611C117.465 42.3106 118.464 42.5581 119.547 42.4771C123.547 41.7246 125.873 37.3222 126.543 33.745L124.876 33.664C123.044 33.8283 121.381 31.7501 120.794 30.3329ZM94.2387 27.5112C97.2355 29.3358 98.8146 32.5814 100.064 35.3243C101.231 32.4966 102.397 29.5046 103.312 26.6769C100.315 26.9275 97.0672 26.9275 94.2387 27.5112ZM100.73 6.63862L92.9037 24.6828C96.6487 24.8486 100.649 24.4314 104.561 24.2656C107.474 18.0296 110.053 11.627 113.551 5.55827C115.299 4.23035 116.548 6.88921 117.882 7.71972L118.13 8.38747C115.55 13.5424 112.971 18.6966 110.721 24.0143C117.048 24.7653 126.542 21.6893 129.622 28.5886C129.87 29.0905 129.537 29.7514 129.87 30.1686C134.2 27.8428 137.616 23.4336 140.196 19.6104C142.027 20.107 140.527 21.7726 141.114 23.183C141.195 24.1816 142.027 25.0954 142.859 25.5133C143.606 25.7639 144.774 25.3468 145.022 26.259C143.525 30.0058 141.029 33.3294 139.528 36.9853C138.782 38.8167 137.447 40.7253 138.279 42.811C138.948 43.7233 140.197 43.3909 141.029 43.0548C148.273 37.6493 150.355 29.3343 154.186 22.1027C154.267 21.9399 154.015 21.8566 154.015 21.7718L149.105 22.0194C148.769 21.1056 149.685 20.3576 150.354 19.7777L155.349 19.2757C157.009 16.1997 158.178 12.9564 160.093 9.88042C161.845 10.4649 163.59 12.3765 164.089 14.1216C163.672 15.7864 162.426 17.1976 162.089 18.6958C167.671 18.5293 173.499 17.8615 179.326 18.1121C179.907 18.9434 179.992 19.9405 180.158 20.8573C173.499 21.1048 167.169 21.2714 160.591 21.522C157.263 28.1737 154.099 34.9904 151.521 41.9767C151.351 42.811 151.521 43.8073 152.519 44.0549C155.599 43.8073 158.092 41.312 160.007 38.8159C161.844 33.5762 164.924 26.7602 171.25 25.346C173.831 24.9319 176.076 25.8479 177.825 27.6717C179.16 29.2525 179.906 31.0021 179.743 33.1621C183.403 32.0802 186.318 29.1715 189.316 26.5089C191.065 26.8442 191.982 28.8384 193.061 30.005L192.729 31.4972C191.229 33.9093 189.981 36.5674 188.817 39.1475C193.062 35.5696 197.643 31.2489 201.806 27.509C203.388 28.0896 204.638 29.9203 204.638 31.4972C202.471 34.9904 200.722 38.6463 199.972 42.7255C199.972 43.7225 199.64 44.8014 200.638 45.4691L201.643 45.2185C207.3 38.317 211.131 30.5009 217.956 24.2641C219.124 25.7631 220.619 27.7573 220.293 29.7514C215.542 35.1607 224.534 40.7253 218.622 45.8015C216.541 47.8804 213.376 47.8804 210.713 47.0469C209.715 46.6327 208.55 46.2156 207.966 45.2193C208.469 43.8861 209.049 42.3946 210.214 41.4785C210.465 43.0555 210.549 44.9679 212.295 45.8022C213.376 46.2163 214.544 45.6364 215.046 44.6363C216.374 41.0614 212.546 38.9825 213.294 35.2425C213.46 33.6625 214.129 32.0817 214.458 30.6682C209.965 35.5718 206.883 41.0622 203.136 46.2981C201.887 47.5496 200.223 47.9599 198.556 47.7154C197.143 47.5496 195.893 46.7153 195.312 45.4706C194.063 41.9782 194.895 37.7356 196.976 34.6596L196.311 34.8261C192.395 38.5699 188.399 42.4764 184.82 46.2981C183.156 46.0505 181.824 44.3895 180.823 43.0563C182.239 39.0657 184.321 35.4091 186.484 31.7501C184.24 32.913 181.825 34.1614 179.326 35.0767C177.91 40.3164 173.995 46.2981 168.253 47.6313C166.008 48.215 163.173 47.6313 161.509 45.5524C160.511 44.4735 160.26 43.0563 159.679 41.8086C156.514 44.8846 152.602 47.7161 148.187 45.9665C146.276 44.8036 146.106 42.5581 146.276 40.564C143.777 43.9724 140.28 46.2981 136.034 46.0505C134.452 45.881 132.702 45.3858 132.038 43.7248C130.954 37.6515 135.118 32.7472 138.365 28.0094C138.117 27.3416 137.95 26.6769 137.617 26.097C135.037 28.3395 132.538 31.0862 129.539 32.4966C128.71 38.4851 124.795 45.5524 118.302 46.9696C116.052 47.0484 114.055 46.6342 112.388 45.3018C109.725 43.0563 109.225 39.3194 110.14 35.989C111.223 32.249 113.971 28.7559 117.305 26.3446L117.05 26.097L109.643 26.2605C106.478 32.9985 103.315 39.7305 100.899 46.716C100.652 47.2997 99.9829 47.2997 99.5689 47.1339C95.2394 45.9673 98.6509 41.6466 97.3212 38.8189C96.6525 35.0782 94.8217 31.3345 91.1601 29.3373L90.8258 29.5069C88.3286 35.2448 85.9156 41.1454 83.2501 46.7168H82.5845C81 45.2215 77.7569 43.6408 78.919 40.9796L84.6662 27.8451C83.9172 27.3432 81.9204 27.9291 82.2501 26.2613C83.2501 24.9349 85.5812 26.0978 86.1642 24.5178L95.5722 3.06673C96.0733 2.5663 96.7374 2.5663 97.2393 3.06673C98.3999 4.23035 100.147 4.97835 100.73 6.63862Z" fill="#6A6A6A"/>
<path fill-rule="evenodd" clip-rule="evenodd" d="M222.187 45.4704C222.187 44.4408 223.025 43.6035 224.063 43.6035C225.094 43.6035 225.936 44.4401 225.936 45.4704C225.936 46.5061 225.094 47.3442 224.063 47.3442C223.025 47.3442 222.187 46.5061 222.187 45.4704ZM221.782 45.4704C221.782 46.728 222.803 47.7485 224.063 47.7485C225.316 47.7485 226.341 46.728 226.341 45.4704C226.341 44.2198 225.316 43.1992 224.063 43.1992C222.803 43.1992 221.782 44.2198 221.782 45.4704ZM223.665 44.5612H224.01C224.304 44.5551 224.63 44.5748 224.63 44.9238C224.63 45.2721 224.304 45.288 224.01 45.288H223.665V44.5612ZM223.185 46.7575H223.665V45.6923H224.01L224.657 46.7575H225.163L224.481 45.6559C224.84 45.6135 225.107 45.3955 225.107 44.9428C225.107 44.4408 224.813 44.1577 224.187 44.1577H223.185V46.7575H223.185Z" fill="#6A6A6A"/>
</svg>
