<svg width="82" height="101" viewBox="0 0 82 101" fill="none" xmlns="http://www.w3.org/2000/svg">
<path d="M0.587891 0.976562V100.727H21.9225V21.0396H81.1226V0.976562H0.587891Z" fill="#6A6A6A"/>
<mask id="mask0_8592_25932" style="mask-type:alpha" maskUnits="userSpaceOnUse" x="0" y="40" width="82" height="41">
<path fill-rule="evenodd" clip-rule="evenodd" d="M0.587891 40.5391C2.71379 63.084 20.0851 80.665 41.1997 80.665C62.3143 80.665 79.6856 63.084 81.8115 40.5391H60.4733C58.5405 52.5878 49.2542 59.4717 41.1997 59.4717C33.1451 59.4717 23.8588 52.5878 21.9261 40.5391H0.587891Z" fill="#FF96A1"/>
</mask>
<g mask="url(#mask0_8592_25932)">
<path fill-rule="evenodd" clip-rule="evenodd" d="M0.583008 40.5391C2.70912 63.0839 20.0812 80.6648 41.1969 80.6648C62.3125 80.6648 79.6846 63.0839 81.8107 40.5391H60.4725C58.5396 52.5869 49.2532 59.4714 41.1969 59.4714C33.1405 59.4714 23.8542 52.5869 21.9213 40.5391H0.583008Z" fill="#6A6A6A"/>
<rect x="0.584961" y="29.2383" width="21.3332" height="52.2769" fill="#5A5A5A"/>
</g>
</svg>
