<svg width="29" height="29" viewBox="0 0 29 29" fill="none" xmlns="http://www.w3.org/2000/svg">
<path d="M13.634 0.745849C14.0189 0.0791825 14.9811 0.0791831 15.366 0.74585L28.5765 23.6271C28.9614 24.2937 28.4803 25.1271 27.7105 25.1271H1.28952C0.519717 25.1271 0.0385927 24.2937 0.423493 23.6271L13.634 0.745849Z" fill="#FBBF24"/>
<path d="M13.492 17.7262V9.75816H15.316V17.7262H13.492ZM13.668 20.9902C13.476 20.7875 13.38 20.5368 13.38 20.2382C13.38 19.9395 13.476 19.6942 13.668 19.5022C13.8707 19.3102 14.116 19.2142 14.404 19.2142C14.692 19.2142 14.9373 19.3102 15.14 19.5022C15.3427 19.6942 15.444 19.9395 15.444 20.2382C15.444 20.5368 15.3427 20.7875 15.14 20.9902C14.9373 21.1822 14.692 21.2782 14.404 21.2782C14.116 21.2782 13.8707 21.1822 13.668 20.9902Z" fill="white"/>
</svg>
